<svg width="1329" height="607" viewBox="0 0 1329 607" fill="none" xmlns="http://www.w3.org/2000/svg">
<g style="mix-blend-mode:multiply">
<path d="M63.794 91.3027H318.523V177.166H149.658V236.126H295.626V321.99H149.658V492H63.794V91.3027ZM635.995 188.615V274.479H492.889V492H407.025V274.479H344.058V188.615H407.025V154.269C407.025 97.5994 455.109 51.233 517.503 51.233H530.096C592.491 51.233 635.995 97.5994 635.995 154.269V162.283H550.131V161.711C550.131 149.69 539.255 137.097 524.372 137.097H520.365C503.193 137.097 492.889 150.262 492.889 168.008V188.615H635.995ZM791.471 411.861C830.968 411.861 842.417 372.936 846.996 346.032H765.712V260.168H920.839V492H852.148L879.052 420.447H856.155C846.996 465.668 830.396 497.724 784.602 497.724C716.483 497.724 648.937 443.344 648.937 291.651C648.937 145.111 710.759 82.1439 790.326 82.1439C872.183 82.1439 920.267 149.69 920.839 228.685H834.975C836.693 193.194 823.527 168.008 790.326 168.008C751.974 168.008 734.801 196.629 734.801 291.651C734.801 376.943 751.974 411.861 791.471 411.861ZM1021.93 606.485C979.003 606.485 938.933 585.878 938.933 517.759H1024.8C1025.37 522.911 1028.8 526.345 1036.82 526.345H1115.24C1127.83 526.345 1132.41 518.904 1132.41 509.173C1132.41 499.442 1127.83 492 1115.24 492H938.933V417.012L982.437 372.936C955.533 352.901 938.933 320.845 938.933 283.637C938.933 218.953 988.734 176.594 1055.71 176.594C1135.85 176.594 1160.46 210.367 1162.18 238.988H1179.35V233.264C1179.35 207.505 1191.37 188.615 1228.58 188.615H1242.32V277.341H1207.4C1192.52 378.087 1122.68 394.115 1076.31 396.405L1007.62 430.751V453.648L1103.79 411.861H1123.83C1177.63 411.861 1218.28 454.792 1218.28 512.035C1218.28 569.277 1177.63 606.485 1129.55 606.485H1021.93ZM1064.87 311.114C1093.49 311.114 1106.65 302.527 1106.65 286.5C1106.65 271.044 1093.49 262.458 1064.87 262.458C1039.68 262.458 1024.8 271.044 1024.8 286.5C1024.8 302.527 1039.68 311.114 1064.87 311.114Z" fill="#A6D5CF"/>
</g>
<path fill-rule="evenodd" clip-rule="evenodd" d="M1329 191L-1.53888e-06 191L0 177L1329 177L1329 191Z" fill="black"/>
<path fill-rule="evenodd" clip-rule="evenodd" d="M1329 497L-6.59513e-07 497L0 491L1329 491L1329 497Z" fill="black"/>
<path fill-rule="evenodd" clip-rule="evenodd" d="M1329 606L-2.19841e-07 606L0 604L1329 604L1329 606Z" fill="black"/>
<path fill-rule="evenodd" clip-rule="evenodd" d="M1329 92L-1.0992e-06 91.9999L0 82L1329 82.0001L1329 92Z" fill="black"/>
<path fill-rule="evenodd" clip-rule="evenodd" d="M1329 54.0001L-2.19841e-07 54L0 52L1329 52.0001L1329 54.0001Z" fill="black"/>
<path d="M66.17 526V516.9H68.809C70.278 516.9 71.344 517.563 71.344 518.967C71.344 519.669 70.954 520.579 69.823 520.696V521.216C70.954 521.281 71.929 521.996 71.929 523.283C71.929 525.116 70.72 526 68.9 526H66.17ZM68.861 524.83C70.057 524.83 70.759 524.323 70.759 523.192C70.759 522.152 70.044 521.619 68.861 521.619H67.34V524.83H68.861ZM68.809 520.449C69.68 520.449 70.174 519.981 70.174 519.149C70.174 518.473 69.693 518.07 68.809 518.07H67.34V520.449H68.809ZM79.8279 524.83V526H79.5159C78.5409 526 78.1249 525.415 78.1249 524.7V524.18H77.6049C77.4229 525.402 76.8899 526.156 75.7849 526.156C74.2119 526.156 73.5099 525.298 73.5099 524.05C73.5099 522.958 74.3289 522.048 75.9669 522.048H77.7349V521.125C77.7349 520.332 77.2799 519.994 76.6169 519.994C75.5769 519.994 75.2389 520.657 75.2389 521.385H74.0689C74.0689 519.669 75.1219 518.824 76.6169 518.824C78.0599 518.824 78.9049 519.682 78.9049 521.385V524.83H79.8279ZM75.7849 524.986C76.5779 524.986 76.8509 524.375 77.0849 523.556L77.7349 523.348V522.828L75.7979 523.062C75.1219 523.14 74.6799 523.504 74.6799 524.05C74.6799 524.739 75.0959 524.986 75.7849 524.986ZM82.9298 523.66C82.9168 524.596 83.6058 524.986 84.4638 524.986C85.3738 524.986 86.0368 524.726 86.0498 524.037C86.0628 522.477 81.8768 523.673 81.8768 520.943C81.8768 519.76 82.8258 518.824 84.5158 518.824C86.3878 518.824 87.2068 520.176 87.2068 521.346H86.0368C86.0368 520.722 85.6338 519.994 84.5158 519.994C83.4758 519.994 83.0468 520.423 83.0468 520.943C83.0468 522.373 87.2458 521.307 87.2198 524.063C87.2068 525.662 85.6858 526.156 84.4638 526.156C83.0208 526.156 81.7208 525.311 81.7598 523.634L82.9298 523.66ZM92.3498 526.13C90.6208 526.13 89.4248 524.908 89.4248 522.503C89.4248 520.098 90.6208 518.85 92.3498 518.85C93.8578 518.85 94.9888 520.098 94.9888 521.905V522.815H90.5948C90.6078 524.141 91.2708 524.96 92.2198 524.96C93.0648 524.96 93.6628 524.635 93.7928 523.725H94.9628C94.7548 525.389 93.4028 526.13 92.3498 526.13ZM93.8188 521.645C93.7798 520.397 93.0518 520.02 92.2978 520.02C91.5308 520.02 90.7638 520.397 90.6208 521.645H93.8188ZM99.2347 517.16H97.4797V515.99H100.405V524.83H102.68V526H97.4797V524.83H99.2347V517.16ZM105.145 524.83H107.42V520.28H105.145V519.11H108.59V524.83H110.865V526H105.145V524.83ZM107.16 516.848H108.603V518.291H107.16V516.848ZM113.135 519.11H114.188L113.59 520.54H114.11C114.682 519.071 115.345 518.824 116.138 518.824C117.36 518.824 118.296 519.786 118.296 521.242V526H117.126V521.476C117.126 520.592 116.762 519.994 115.839 519.994C115.085 519.994 114.305 520.54 114.305 522.451V526H113.135V519.11ZM123.529 526.13C121.8 526.13 120.604 524.908 120.604 522.503C120.604 520.098 121.8 518.85 123.529 518.85C125.037 518.85 126.168 520.098 126.168 521.905V522.815H121.774C121.787 524.141 122.45 524.96 123.399 524.96C124.244 524.96 124.842 524.635 124.972 523.725H126.142C125.934 525.389 124.582 526.13 123.529 526.13ZM124.998 521.645C124.959 520.397 124.231 520.02 123.477 520.02C122.71 520.02 121.943 520.397 121.8 521.645H124.998Z" fill="black"/>
<path d="M67.249 581.083V587.83H68.042C69.641 587.83 70.629 586.907 70.629 584.723V584.112C70.629 581.928 69.628 581.044 68.029 581.07L67.249 581.083ZM68.029 579.9C70.382 579.874 71.799 581.382 71.799 584.112V584.723C71.799 587.453 70.395 589 68.042 589H66.079V579.913L68.029 579.9ZM76.7599 589.13C75.0309 589.13 73.8349 587.908 73.8349 585.503C73.8349 583.098 75.0309 581.85 76.7599 581.85C78.2679 581.85 79.3989 583.098 79.3989 584.905V585.815H75.0049C75.0179 587.141 75.6809 587.96 76.6299 587.96C77.4749 587.96 78.0729 587.635 78.2029 586.725H79.3729C79.1649 588.389 77.8129 589.13 76.7599 589.13ZM78.2289 584.645C78.1899 583.397 77.4619 583.02 76.7079 583.02C75.9409 583.02 75.1739 583.397 75.0309 584.645H78.2289ZM82.9298 586.66C82.9168 587.596 83.6058 587.986 84.4638 587.986C85.3738 587.986 86.0368 587.726 86.0498 587.037C86.0628 585.477 81.8768 586.673 81.8768 583.943C81.8768 582.76 82.8258 581.824 84.5158 581.824C86.3878 581.824 87.2068 583.176 87.2068 584.346H86.0368C86.0368 583.722 85.6338 582.994 84.5158 582.994C83.4758 582.994 83.0468 583.423 83.0468 583.943C83.0468 585.373 87.2458 584.307 87.2198 587.063C87.2068 588.662 85.6858 589.156 84.4638 589.156C83.0208 589.156 81.7208 588.311 81.7598 586.634L82.9298 586.66ZM89.4248 585.516C89.4248 583.111 90.6208 581.85 92.3498 581.85C93.8578 581.85 94.9888 583.085 94.9888 584.645H93.8188C93.8188 583.748 93.2468 583.02 92.2198 583.02C91.2708 583.02 90.5948 583.761 90.5948 585.516C90.5818 587.284 91.2708 587.986 92.2198 587.986C93.2468 587.986 93.8448 587.336 93.8448 586.231H95.0148C95.0148 587.999 93.8058 589.156 92.3498 589.156C90.6208 589.156 89.4248 587.921 89.4248 585.516ZM100.145 589.13C98.4157 589.13 97.2197 587.908 97.2197 585.503C97.2197 583.098 98.4157 581.85 100.145 581.85C101.653 581.85 102.784 583.098 102.784 584.905V585.815H98.3897C98.4027 587.141 99.0657 587.96 100.015 587.96C100.86 587.96 101.458 587.635 101.588 586.725H102.758C102.55 588.389 101.198 589.13 100.145 589.13ZM101.614 584.645C101.575 583.397 100.847 583.02 100.093 583.02C99.3257 583.02 98.5587 583.397 98.4157 584.645H101.614ZM105.34 582.11H106.393L105.795 583.54H106.315C106.887 582.071 107.55 581.824 108.343 581.824C109.565 581.824 110.501 582.786 110.501 584.242V589H109.331V584.476C109.331 583.592 108.967 582.994 108.044 582.994C107.29 582.994 106.51 583.54 106.51 585.451V589H105.34V582.11ZM118.725 578.99V589H117.555V588.558L118.075 587.102H117.555C117.204 588.428 116.385 589.156 115.267 589.156C113.772 589.156 112.784 587.856 112.784 585.516C112.784 583.189 113.772 581.824 115.267 581.824C116.437 581.824 117.282 582.656 117.594 584.125H118.114L117.555 582.37V578.99H118.725ZM115.475 587.986C116.385 587.986 116.957 587.102 116.957 585.516C116.957 583.943 116.385 582.994 115.475 582.994C114.565 582.994 113.954 583.943 113.954 585.516C113.954 587.102 114.565 587.986 115.475 587.986ZM123.529 589.13C121.8 589.13 120.604 587.908 120.604 585.503C120.604 583.098 121.8 581.85 123.529 581.85C125.037 581.85 126.168 583.098 126.168 584.905V585.815H121.774C121.787 587.141 122.45 587.96 123.399 587.96C124.244 587.96 124.842 587.635 124.972 586.725H126.142C125.934 588.389 124.582 589.13 123.529 589.13ZM124.998 584.645C124.959 583.397 124.231 583.02 123.477 583.02C122.71 583.02 121.943 583.397 121.8 584.645H124.998ZM128.854 589V582.11H129.907L129.348 583.54H129.868C130.206 582.097 131.064 581.824 131.857 581.824C133.079 581.824 134.015 582.786 134.015 584.242V585.347H132.845V584.476C132.845 583.592 132.481 582.994 131.558 582.994C130.804 582.994 130.024 583.54 130.024 585.451V589H128.854Z" fill="black"/>
<path d="M68.887 63.862C67.678 63.862 66.989 65.006 66.989 67.45C66.989 69.894 67.678 70.986 68.887 70.986C69.875 70.986 70.642 70.128 70.59 68.672H71.76C71.76 70.752 70.603 72.156 68.887 72.156C66.872 72.156 65.819 70.414 65.819 67.45C65.819 64.486 66.859 62.692 68.887 62.692C70.564 62.692 71.695 64.044 71.734 66.02H70.551C70.59 64.681 69.823 63.862 68.887 63.862ZM79.8279 70.83V72H79.5159C78.5409 72 78.1249 71.415 78.1249 70.7V70.18H77.6049C77.4229 71.402 76.8899 72.156 75.7849 72.156C74.2119 72.156 73.5099 71.298 73.5099 70.05C73.5099 68.958 74.3289 68.048 75.9669 68.048H77.7349V67.125C77.7349 66.332 77.2799 65.994 76.6169 65.994C75.5769 65.994 75.2389 66.657 75.2389 67.385H74.0689C74.0689 65.669 75.1219 64.824 76.6169 64.824C78.0599 64.824 78.9049 65.682 78.9049 67.385V70.83H79.8279ZM75.7849 70.986C76.5779 70.986 76.8509 70.375 77.0849 69.556L77.7349 69.348V68.828L75.7979 69.062C75.1219 69.14 74.6799 69.504 74.6799 70.05C74.6799 70.739 75.0959 70.986 75.7849 70.986ZM81.8118 74.6V65.11H82.9818V65.435L82.4618 66.878H82.9818C83.3328 65.552 84.1518 64.824 85.2698 64.824C86.7648 64.824 87.7528 66.124 87.7528 68.464C87.7528 70.791 86.7648 72.156 85.2698 72.156C84.0998 72.156 83.2548 71.324 82.9428 69.855H82.4228L82.9818 71.61V74.6H81.8118ZM85.0618 65.994C84.1518 65.994 83.5798 66.878 83.5798 68.464C83.5798 70.037 84.1518 70.986 85.0618 70.986C85.9718 70.986 86.5828 70.037 86.5828 68.464C86.5828 66.878 85.9718 65.994 85.0618 65.994ZM97.5447 61.99H98.7147V64.07L98.0907 66.098H98.6107C98.8967 65.357 99.5987 64.837 100.392 64.837C102.004 64.837 102.706 65.799 102.706 67.424V72H101.536V67.424C101.536 66.449 101.094 66.007 100.132 66.007C99.1697 66.007 98.7147 66.696 98.7147 67.684V72H97.5447V61.99ZM107.94 72.13C106.211 72.13 105.015 70.908 105.015 68.503C105.015 66.098 106.211 64.85 107.94 64.85C109.448 64.85 110.579 66.098 110.579 67.905V68.815H106.185C106.198 70.141 106.861 70.96 107.81 70.96C108.655 70.96 109.253 70.635 109.383 69.725H110.553C110.345 71.389 108.993 72.13 107.94 72.13ZM109.409 67.645C109.37 66.397 108.642 66.02 107.888 66.02C107.121 66.02 106.354 66.397 106.211 67.645H109.409ZM112.94 70.83H115.215V66.28H112.94V65.11H116.385V70.83H118.66V72H112.94V70.83ZM114.955 62.848H116.398V64.291H114.955V62.848ZM122.229 74.6C121.254 74.6 120.344 74.002 120.344 72.715H121.514C121.514 73.248 121.787 73.43 122.229 73.43H124.413C124.933 73.43 125.258 73.157 125.258 72.715C125.258 72.273 124.933 72 124.413 72H120.344V70.817L121.748 69.491C120.877 69.101 120.344 68.256 120.344 67.268C120.344 65.929 121.345 64.837 122.866 64.837C124.296 64.837 125.115 65.604 125.154 66.514H125.674V66.28C125.674 65.435 125.986 65.11 126.831 65.11H126.974V66.345H126.311C126.311 69.335 124.114 69.673 123.061 69.712L121.514 70.7V71.22L123.308 70.83H124.413C125.505 70.83 126.428 71.545 126.428 72.715C126.428 73.885 125.505 74.6 124.413 74.6H122.229ZM123.074 68.542C123.945 68.542 124.673 68.087 124.673 67.268C124.673 66.462 123.945 66.007 123.074 66.007C122.281 66.007 121.514 66.462 121.514 67.268C121.514 68.087 122.307 68.542 123.074 68.542ZM128.724 61.99H129.894V64.07L129.27 66.098H129.79C130.076 65.357 130.778 64.837 131.571 64.837C133.183 64.837 133.885 65.799 133.885 67.424V72H132.715V67.424C132.715 66.449 132.273 66.007 131.311 66.007C130.349 66.007 129.894 66.696 129.894 67.684V72H128.724V61.99ZM140.484 69.218H141.654V69.998C141.654 71.337 140.835 72.156 139.509 72.156C138.17 72.156 137.351 71.337 137.351 69.998V66.28H135.934V65.11H137.351V62.9H138.521V65.11H141.654V66.28H138.521V69.998C138.521 70.687 138.82 70.986 139.509 70.986C140.185 70.986 140.484 70.687 140.484 69.998V69.218Z" fill="black"/>
<path d="M66.17 37V27.9H68.809C70.278 27.9 71.344 28.563 71.344 29.967C71.344 30.669 70.954 31.579 69.823 31.696V32.216C70.954 32.281 71.929 32.996 71.929 34.283C71.929 36.116 70.72 37 68.9 37H66.17ZM68.861 35.83C70.057 35.83 70.759 35.323 70.759 34.192C70.759 33.152 70.044 32.619 68.861 32.619H67.34V35.83H68.861ZM68.809 31.449C69.68 31.449 70.174 30.981 70.174 30.149C70.174 29.473 69.693 29.07 68.809 29.07H67.34V31.449H68.809ZM78.4499 33.503C78.4499 31.735 77.7349 30.994 76.6949 30.994C75.6549 30.994 74.9399 31.735 74.9399 33.503C74.9399 35.271 75.6549 35.986 76.6949 35.986C77.7349 35.986 78.4499 35.271 78.4499 33.503ZM73.7699 33.503C73.7699 31.085 75.0959 29.824 76.6949 29.824C78.2939 29.824 79.6199 31.085 79.6199 33.503C79.6199 35.973 78.2939 37.156 76.6949 37.156C75.0959 37.156 73.7699 35.973 73.7699 33.503ZM87.5448 26.99V37H86.3748V36.558L86.8948 35.102H86.3748C86.0238 36.428 85.2048 37.156 84.0868 37.156C82.5918 37.156 81.6038 35.856 81.6038 33.516C81.6038 31.189 82.5918 29.824 84.0868 29.824C85.2568 29.824 86.1018 30.656 86.4138 32.125H86.9338L86.3748 30.37V26.99H87.5448ZM84.2948 35.986C85.2048 35.986 85.7768 35.102 85.7768 33.516C85.7768 31.943 85.2048 30.994 84.2948 30.994C83.3848 30.994 82.7738 31.943 82.7738 33.516C82.7738 35.102 83.3848 35.986 84.2948 35.986ZM90.3868 37.598C90.4388 38.274 90.8288 38.56 91.2188 38.56C91.5438 38.56 91.8688 38.391 91.9858 37.962L92.2458 37H91.4788L89.1908 30.11H90.4258L92.1548 35.271L91.9728 36.09H92.4928L94.1828 30.11H95.3788L93.1038 38.274C92.8308 39.275 92.0248 39.6 91.2058 39.6C90.2698 39.6 89.3338 38.963 89.2168 37.598H90.3868ZM105.34 26.99H106.51V29.07L105.886 31.098H106.406C106.692 30.357 107.394 29.837 108.187 29.837C109.799 29.837 110.501 30.799 110.501 32.424V37H109.331V32.424C109.331 31.449 108.889 31.007 107.927 31.007C106.965 31.007 106.51 31.696 106.51 32.684V37H105.34V26.99ZM115.735 37.13C114.006 37.13 112.81 35.908 112.81 33.503C112.81 31.098 114.006 29.85 115.735 29.85C117.243 29.85 118.374 31.098 118.374 32.905V33.815H113.98C113.993 35.141 114.656 35.96 115.605 35.96C116.45 35.96 117.048 35.635 117.178 34.725H118.348C118.14 36.389 116.788 37.13 115.735 37.13ZM117.204 32.645C117.165 31.397 116.437 31.02 115.683 31.02C114.916 31.02 114.149 31.397 114.006 32.645H117.204ZM120.734 35.83H123.009V31.28H120.734V30.11H124.179V35.83H126.454V37H120.734V35.83ZM122.749 27.848H124.192V29.291H122.749V27.848ZM130.024 39.6C129.049 39.6 128.139 39.002 128.139 37.715H129.309C129.309 38.248 129.582 38.43 130.024 38.43H132.208C132.728 38.43 133.053 38.157 133.053 37.715C133.053 37.273 132.728 37 132.208 37H128.139V35.817L129.543 34.491C128.672 34.101 128.139 33.256 128.139 32.268C128.139 30.929 129.14 29.837 130.661 29.837C132.091 29.837 132.91 30.604 132.949 31.514H133.469V31.28C133.469 30.435 133.781 30.11 134.626 30.11H134.769V31.345H134.106C134.106 34.335 131.909 34.673 130.856 34.712L129.309 35.7V36.22L131.103 35.83H132.208C133.3 35.83 134.223 36.545 134.223 37.715C134.223 38.885 133.3 39.6 132.208 39.6H130.024ZM130.869 33.542C131.74 33.542 132.468 33.087 132.468 32.268C132.468 31.462 131.74 31.007 130.869 31.007C130.076 31.007 129.309 31.462 129.309 32.268C129.309 33.087 130.102 33.542 130.869 33.542ZM136.519 26.99H137.689V29.07L137.065 31.098H137.585C137.871 30.357 138.573 29.837 139.366 29.837C140.978 29.837 141.68 30.799 141.68 32.424V37H140.51V32.424C140.51 31.449 140.068 31.007 139.106 31.007C138.144 31.007 137.689 31.696 137.689 32.684V37H136.519V26.99ZM148.279 34.218H149.449V34.998C149.449 36.337 148.63 37.156 147.304 37.156C145.965 37.156 145.146 36.337 145.146 34.998V31.28H143.729V30.11H145.146V27.9H146.316V30.11H149.449V31.28H146.316V34.998C146.316 35.687 146.615 35.986 147.304 35.986C147.98 35.986 148.279 35.687 148.279 34.998V34.218Z" fill="black"/>
<path d="M65.676 166L67.925 161.45L65.676 156.9H66.937L68.445 159.864L68.64 160.904H69.16L69.355 159.864L70.863 156.9H72.124L69.875 161.45L72.124 166H70.863L69.355 163.023L69.16 161.996H68.64L68.445 163.023L66.937 166H65.676ZM74.3549 161.58H79.0349V162.75H74.3549V161.58ZM86.1798 161.866H82.7998V166H81.6298V156.9H82.7998V160.696H86.1798V156.9H87.3498V166H86.1798V161.866ZM92.3498 166.13C90.6208 166.13 89.4248 164.908 89.4248 162.503C89.4248 160.098 90.6208 158.85 92.3498 158.85C93.8578 158.85 94.9888 160.098 94.9888 161.905V162.815H90.5948C90.6078 164.141 91.2708 164.96 92.2198 164.96C93.0648 164.96 93.6628 164.635 93.7928 163.725H94.9628C94.7548 165.389 93.4028 166.13 92.3498 166.13ZM93.8188 161.645C93.7798 160.397 93.0518 160.02 92.2978 160.02C91.5308 160.02 90.7638 160.397 90.6208 161.645H93.8188ZM97.3497 164.83H99.6247V160.28H97.3497V159.11H100.795V164.83H103.07V166H97.3497V164.83ZM99.3647 156.848H100.808V158.291H99.3647V156.848ZM106.64 168.6C105.665 168.6 104.755 168.002 104.755 166.715H105.925C105.925 167.248 106.198 167.43 106.64 167.43H108.824C109.344 167.43 109.669 167.157 109.669 166.715C109.669 166.273 109.344 166 108.824 166H104.755V164.817L106.159 163.491C105.288 163.101 104.755 162.256 104.755 161.268C104.755 159.929 105.756 158.837 107.277 158.837C108.707 158.837 109.526 159.604 109.565 160.514H110.085V160.28C110.085 159.435 110.397 159.11 111.242 159.11H111.385V160.345H110.722C110.722 163.335 108.525 163.673 107.472 163.712L105.925 164.7V165.22L107.719 164.83H108.824C109.916 164.83 110.839 165.545 110.839 166.715C110.839 167.885 109.916 168.6 108.824 168.6H106.64ZM107.485 162.542C108.356 162.542 109.084 162.087 109.084 161.268C109.084 160.462 108.356 160.007 107.485 160.007C106.692 160.007 105.925 160.462 105.925 161.268C105.925 162.087 106.718 162.542 107.485 162.542ZM113.135 155.99H114.305V158.07L113.681 160.098H114.201C114.487 159.357 115.189 158.837 115.982 158.837C117.594 158.837 118.296 159.799 118.296 161.424V166H117.126V161.424C117.126 160.449 116.684 160.007 115.722 160.007C114.76 160.007 114.305 160.696 114.305 161.684V166H113.135V155.99ZM124.894 163.218H126.064V163.998C126.064 165.337 125.245 166.156 123.919 166.156C122.58 166.156 121.761 165.337 121.761 163.998V160.28H120.344V159.11H121.761V156.9H122.931V159.11H126.064V160.28H122.931V163.998C122.931 164.687 123.23 164.986 123.919 164.986C124.595 164.986 124.894 164.687 124.894 163.998V163.218Z" fill="black"/>
</svg>
